PathFileType	4	(X/Y/Z)	/Users/niels/Desktop/University/Third Semester/Perception and Action/Exam/Gymnastics Motion Tracking/Code for Gym Tracking/Analyzed Data/Webcam_Backflip/id12_1_baseline_Sports2D/id12_1_baseline_Sports2D_px_person00.trc
DataRate	CameraRate	NumFrames	NumMarkers	Units	OrigDataRate	OrigDataStartFrame	OrigNumFrames
29.705882352941178	29.705882352941178	11	22	m	29.705882352941178	38	102
Frame#	Time	Hip			RHip			RKnee			RAnkle			RBigToe			RSmallToe			RHeel			LHip			LKnee			LAnkle			LBigToe			LSmallToe			LHeel			Neck			Head			Nose			RShoulder			RElbow			RWrist			LShoulder			LElbow			LWrist		
		X1	Y1	Z1	X2	Y2	Z2	X3	Y3	Z3	X4	Y4	Z4	X5	Y5	Z5	X6	Y6	Z6	X7	Y7	Z7	X8	Y8	Z8	X9	Y9	Z9	X10	Y10	Z10	X11	Y11	Z11	X12	Y12	Z12	X13	Y13	Z13	X14	Y14	Z14	X15	Y15	Z15	X16	Y16	Z16	X17	Y17	Z17	X18	Y18	Z18	X19	Y19	Z19	X20	Y20	Z20	X21	Y21	Z21	X22	Y22	Z22
38	1.2792079207920792	0.795545505554293	-0.5790004122296277	0.0	0.7489193817796782	-0.5750933378501725	0.0	0.7119208768131662	-0.7751939213933499	0.0	0.6877624456298902	-0.9606464870692182	0.0	0.7284551046010252	-1.0031126287967527	0.0	0.6924930870128686	-1.0057977224385894	0.0	0.6726836335321765	-0.9778527490043178	0.0	0.8410729302477211	-0.5875131585868567	0.0	0.9022540063241913	-0.7710425559598344	0.0	0.9798968908955094	-0.9496480507280867	0.0	1.0716714976905202	-0.9547322379266228	0.0	1.0662425786473713	-0.9455571333491634	0.0	0.9747258414369171	-0.9787385055692799	0.0	0.8832142363343523	-0.2995818552240634	0.0	0.9142799516670354	-0.17110186728960514	0.0	0.9193846395433669	-0.2451581888140538	0.0	0.7928645602473343	-0.33373554899009716	0.0	0.7421938736650183	-0.469665678608186	0.0	0.8007645383258369	-0.5841183060318338	0.0	0.9388918210202953	-0.36051273402145806	0.0	0.9509298581950597	-0.48718116351256113	0.0	1.0208141057688267	-0.5476696004089184	0.0
39	1.312871287128713	0.787814139837162	-0.5809419834474746	0.0	0.740583628944294	-0.5773812010347059	0.0	0.7068021667893088	-0.7773500075531307	0.0	0.6874823336093557	-0.9630673907471359	0.0	0.7283703545221332	-1.003935967590076	0.0	0.6927675178249394	-1.006514954870441	0.0	0.6731100429376767	-0.980705786903454	0.0	0.833680206081428	-0.5887374656375512	0.0	0.8947596642951513	-0.7720575087713152	0.0	0.9753180002088191	-0.9507454950815779	0.0	1.0656081336330046	-0.9528293705764718	0.0	1.0605151320356594	-0.9432266741383408	0.0	0.971071153085924	-0.9793114142992434	0.0	0.8772779224461362	-0.3006091927030878	0.0	0.9085218772028701	-0.17220106087426904	0.0	0.9136168937018755	-0.2461794852165115	0.0	0.7830108924353297	-0.3335309233593425	0.0	0.7177764101277354	-0.46737438885081617	0.0	0.7563345973155079	-0.5876892741711163	0.0	0.9362594497283826	-0.3628688359601217	0.0	0.9528732161373851	-0.4892665682245157	0.0	1.0222589447670443	-0.5453942582938701	0.0
40	1.3465346534653466	0.781765758925662	-0.5816379203526705	0.0	0.7341771376519941	-0.578629146120967	0.0	0.703055408522288	-0.7790166854610637	0.0	0.6874442803058751	-0.9664577962859584	0.0	0.7282020143073473	-1.0055706961006883	0.0	0.6933518281145409	-1.0082693181716054	0.0	0.6739078660364431	-0.9841258096971585	0.0	0.8275162025792577	-0.5891364106513084	0.0	0.8892180140913917	-0.7722568872095353	0.0	0.9712839901501451	-0.9516213086352905	0.0	1.0601715553205986	-0.9517071697575186	0.0	1.0558022051521394	-0.9416165512103319	0.0	0.9676550732837356	-0.9797456486068274	0.0	0.872066775823954	-0.30076692709173014	0.0	0.9033899035592954	-0.1726693002417554	0.0	0.9083919846289314	-0.24678041668226788	0.0	0.7745659823579235	-0.3323000486501502	0.0	0.6975816710417823	-0.46304557956430314	0.0	0.717364081253547	-0.5860458713280224	0.0	0.9340364309508496	-0.3641036848728792	0.0	0.9549962449516712	-0.48999229539849054	0.0	1.0232049566848829	-0.5425834523982463	0.0
41	1.3801980198019803	0.7771333872858076	-0.5809711679317762	0.0	0.7292582303923508	-0.5785847425225639	0.0	0.7003448642130222	-0.7797906875724163	0.0	0.6876649986589386	-0.9699371426044326	0.0	0.7277084320034503	-1.007251666388772	0.0	0.6937320965575466	-1.0101509697732183	0.0	0.6750295756836405	-0.9874933862952195	0.0	0.8226997634541283	-0.5886646331524444	0.0	0.8855059346231088	-0.7715724445820251	0.0	0.967879670052277	-0.9519648500427472	0.0	1.055746219757798	-0.9510107114267352	0.0	1.0522769792670905	-0.9405739632970561	0.0	0.964567514915388	-0.9798600955184185	0.0	0.8675717359390694	-0.29999551208146313	0.0	0.8987749084733742	-0.17231032544204647	0.0	0.9035448410369182	-0.24656014606866897	0.0	0.7676023930968682	-0.3301718098035462	0.0	0.681839811697955	-0.457462179938862	0.0	0.6853811880523797	-0.5804839953487639	0.0	0.9320370377068816	-0.3642445629965966	0.0	0.9569047513483979	-0.48959435836382487	0.0	1.0236225195151607	-0.5395468445185441	0.0
42	1.413861386138614	0.7738729302389018	-0.5792273945257357	0.0	0.7256448426235584	-0.577371390668488	0.0	0.6984134931317733	-0.7795815275013087	0.0	0.6881026440462348	-0.972764905170359	0.0	0.7268922032291878	-1.008309808866996	0.0	0.6936508037147767	-1.011299653692811	0.0	0.6763621946252263	-0.9902635568063989	0.0	0.8193988388217004	-0.5874771521405086	0.0	0.8834089674189948	-0.7702049973175995	0.0	0.965142241084343	-0.9516459824286048	0.0	1.0525191854325198	-0.9504691206611143	0.0	1.049941781391413	-0.9399617023328241	0.0	0.9619444256709395	-0.9795488305832648	0.0	0.863730939227837	-0.2983758547723677	0.0	0.8945821713340606	-0.17104068549878712	0.0	0.8990388628731503	-0.24525002399394974	0.0	0.7620871933992285	-0.3275367326821839	0.0	0.6705377672304731	-0.45154757515143285	0.0	0.6610142473545073	-0.5729007756721065	0.0	0.9300943959376711	-0.36342707729453794	0.0	0.9582359402840536	-0.4883613541759653	0.0	1.0234925301828304	-0.5365069532532579	0.0
43	1.4475247524752477	0.7720772919258264	-0.5770200869033999	0.0	0.7233497021174011	-0.5755611125846822	0.0	0.6971940948013684	-0.7788420634095886	0.0	0.6886790553602788	-0.974671835721709	0.0	0.7259762506476264	-1.0084661251441582	0.0	0.6932116004805893	-1.011380983249739	0.0	0.6778081479030649	-0.9921812495991698	0.0	0.8177014196611591	-0.5859959650504007	0.0	0.8827278512952635	-0.7686372071984915	0.0	0.963165045913576	-0.9508574058578703	0.0	1.050547798316533	-0.9500309690733516	0.0	1.048742942849338	-0.9397095214133326	0.0	0.9600179877786138	-0.9789767170701796	0.0	0.8604722011585297	-0.29617645597596287	0.0	0.8907511919618971	-0.16896653827446892	0.0	0.894933527445012	-0.24291936410388235	0.0	0.7578351726608716	-0.32492091103979837	0.0	0.6632360993708732	-0.44622018274377073	0.0	0.6439716206720256	-0.5651436648524021	0.0	0.9281997215284036	-0.3618826668688409	0.0	0.9588006440700185	-0.48661777552281577	0.0	1.0228483753894375	-0.5335773500545097	0.0
44	1.4811881188118812	0.7717597824121879	-0.5750437985282663	0.0	0.7223574717951059	-0.5738671439381337	0.0	0.6967231699421053	-0.7782688789261619	0.0	0.6893266429516373	-0.9758142225869445	0.0	0.7252111113746361	-1.007870741659085	0.0	0.6926880529510749	-1.0106381648675302	0.0	0.679312025690065	-0.9933133979228792	0.0	0.8175614763214122	-0.5847589861372497	0.0	0.8833379079352663	-0.7674366232640752	0.0	0.962148810446834	-0.9500488213738512	0.0	1.0498285578739364	-0.9497857953783372	0.0	1.0486233270360066	-0.9398066487477887	0.0	0.9590356836331494	-0.9785267628852238	0.0	0.8577945473457395	-0.29371786026975644	0.0	0.8873290790639112	-0.16634589624400384	0.0	0.8913453389740242	-0.23995830907230165	0.0	0.7546145834753296	-0.32278203011876194	0.0	0.6591506282619499	-0.4421742727254299	0.0	0.633289910094745	-0.5585995649834735	0.0	0.9265705099441351	-0.3599110830889747	0.0	0.9586478048657654	-0.4846926655888523	0.0	1.0217602136727142	-0.5308129393863551	0.0
45	1.5148514851485149	0.772795035452926	-0.5737711912845999	0.0	0.7226420975982283	-0.5727666516534047	0.0	0.6970167462936487	-0.7782574267532304	0.0	0.6900036122973358	-0.9764895516686447	0.0	0.7247301495147679	-1.006881375310574	0.0	0.6922835360356748	-1.009552642136699	0.0	0.6808306149761088	-0.9939320641255357	0.0	0.8188385307212349	-0.5841233335025962	0.0	0.8851269514545811	-0.7669250836563316	0.0	0.9622742942501356	-0.9496321943041099	0.0	1.050273183228212	-0.949844590120254	0.0	1.0494936264188548	-0.9402936871131655	0.0	0.9591135990249937	-0.9785256273416852	0.0	0.8557970266683781	-0.29127186332675764	0.0	0.8844719344907117	-0.1635158320359989	0.0	0.8884227792133139	-0.23689524541136772	0.0	0.7523072549674266	-0.32136861818695706	0.0	0.6574142290565652	-0.4397263568161344	0.0	0.6276950264794419	-0.5540088859405898	0.0	0.9255461855481751	-0.3577899636056902	0.0	0.9580898537199152	-0.48276116045816364	0.0	1.0203802211729383	-0.5282935108630056	0.0
46	1.5485148514851486	0.7750233502886732	-0.573361157534173	0.0	0.7242787341431215	-0.5724060362274787	0.0	0.6980200955831382	-0.7787029129436314	0.0	0.6906605044359718	-0.9768911282178667	0.0	0.7245071865523112	-1.0057910994428436	0.0	0.6920352380825135	-1.0084923405394635	0.0	0.682276927365507	-0.9943160683442155	0.0	0.8213595317574074	-0.5841295140534771	0.0	0.8879630882754692	-0.7670159314537794	0.0	0.9634855237490042	-0.9497211607393532	0.0	1.0516106536214236	-0.9503144983253322	0.0	1.0511547004127129	-0.9412597416124945	0.0	0.9601135534401378	-0.9789994013857879	0.0	0.8546258034442924	-0.289069630063255	0.0	0.8823630473804344	-0.16082837204095124	0.0	0.8863582735434224	-0.23420607515144898	0.0	0.750936779656821	-0.3207241175659276	0.0	0.6572905434886746	-0.4388642354063317	0.0	0.6259549007587284	-0.5515460115469644	0.0	0.9254015626656739	-0.35571393239415855	0.0	0.9576473373841708	-0.48079815599343667	0.0	1.0189694897058394	-0.5261415367881362	0.0
47	1.5821782178217823	0.7783341104881768	-0.5737888748306446	0.0	0.7273574823485086	-0.5727515236921478	0.0	0.6996266886552224	-0.7792739088728166	0.0	0.6912309549095809	-0.9770432199254081	0.0	0.7243909241294976	-1.0047556242415001	0.0	0.6918620863858602	-1.0076276941307893	0.0	0.6834815791687239	-0.9945815660334231	0.0	0.8249480442695291	-0.5846487562102762	0.0	0.8917511885589852	-0.767375636847352	0.0	0.96544823687661	-0.9500997472372821	0.0	1.0534068877574303	-0.9513136856240054	0.0	1.0532591153923947	-0.9427949473851274	0.0	0.9616371181225594	-0.9796432810322394	0.0	0.8544031550362818	-0.28727956323691956	0.0	0.8811762359427249	-0.15860961599423182	0.0	0.8854466301148098	-0.23219991769072718	0.0	0.7505942734414137	-0.3207521235089503	0.0	0.6582996761264398	-0.43935678792983235	0.0	0.6271231012808474	-0.5510648786103077	0.0	0.9262438635830171	-0.35381465251634225	0.0	0.95783136500647	-0.47873743990862183	0.0	1.0177810745083522	-0.5244702702160146	0.0
48	1.615841584158416	0.782636774489495	-0.5749654235539535	0.0	0.7317816448636083	-0.5737530385335853	0.0	0.7016992539390141	-0.7797887022246652	0.0	0.6916540172217817	-0.97689882472785	0.0	0.7241997749894389	-1.0039191075546434	0.0	0.6916695909686656	-1.0070519273328131	0.0	0.6842125787389923	-0.9946772647109795	0.0	0.8294229535744977	-0.5855748897870413	0.0	0.8964774440901839	-0.7677000464157709	0.0	0.9677522040752943	-0.950411640837323	0.0	1.0552661009620408	-0.9529584156597272	0.0	1.0554207744419701	-0.944914857687179	0.0	0.9632162221957892	-0.9800428401493417	0.0	0.8552079100881431	-0.2859837925123158	0.0	0.8810979521187696	-0.15712505188141887	0.0	0.8860900919530902	-0.23101888962771583	0.0	0.7513847413131647	-0.32127169478749723	0.0	0.6602700908994618	-0.4408863718459605	0.0	0.6306418389549042	-0.5523460599522113	0.0	0.9280290174401126	-0.35220033479088575	0.0	0.9589002561719544	-0.4766165255299805	0.0	1.0168792136934561	-0.523356497487045	0.0
